<svg xmlns="http://www.w3.org/2000/svg" width="199.976" height="60.584" viewBox="0 0 199.976 60.584">
  <path id="blod" d="M224.6,1137.938H24.619v3.766s8.846,7.642,16.048,6.125,17.142,3.115,17.339,5.334-2.18,18.7-1.786,21.971,1.587,3.385,3.015,2.442.725-.111,1.021-2.442-.2-18.2,0-21.589,3.748-2.664,5.716-3.385c0,0,4.683,0,4.83,2.22s3,2.556,3.044,0,2.7-2.22,3.293-2.22,1.772,3.66,1.7,5.325-1,3.829-1.054,5.411.669,3.163,1.968,3.33,1.743-2.914,1.669-3.829-1.181-3.58-1.255-4.995.525-4.6,1.554-5.128,1.1-1.448,3.317-1.615a5.184,5.184,0,0,1,4.557,1.5s3.2,6.715,10.876,6.66,9.153-6.66,10.777-6.66,5.266,1.5,5.905,4.44.75,31.079.6,35.519-.744,3.907-.6,5.989,1.433,2.414,1.968,2.414,1.255-1.465,1.279-2.464-.812-4.3-.763-6.077-.27-34.326.763-36.435c0,0,2-3.385,4.625-3.385s4.688,1.567,4.836,3a9.942,9.942,0,0,1-.389,4.236c-.443,1.165.458,3.657,1.458,3.657s1.3-3.145,1.1-3.7a8.512,8.512,0,0,1-.459-4.366c.443-1.61,3.3-3.774,5.266-3.774,1.5,0,3.385,1.031,4.772,1.525a3.433,3.433,0,0,0,2.125.074c2.377-.7,4.914-3.15,4.914-5.095,0-2.22,2.592-2.559,3.937-2.22s.878,3.41,2.354,4.825,2.821.663,3.551,1.249,1.132,3.583,1.05,4.545c-.06.7-.246.758-.344,1.646s.361,1.055.689,1.055.722-.574.574-1.129a6.941,6.941,0,0,1-.246-1.831c-.012-.777-.012-4.852.656-6.031.64-1.128,1.115-1.054,1.558-1.054s1.263.888,1.329,1.165.234.624.566.624.455-.611.455-.708.431-1.249,1.193-1.332,1.526.583,2.116.657,3.984.628,6.151-2.177c.778-1.007,3.494-.561,3.937,1.77s.458,23.361.458,25.026-.9,2.335-.95,3.39.738,2.386,1.378,2.386,1.083-1.5,1.083-2.442-.935-2.719-.935-3.5.3-23.42.935-25.085,2.707-2.275,3.937-2.22a4.373,4.373,0,0,1,3.067,1.776c.426.74,1.05,5.272,1.05,6.882s.066,7.326-.18,8.732.2,2.035.623,2.016.623-1.573.459-2.09-.377-8.473-.377-8.917a56.6,56.6,0,0,1,.435-6.623c.287-.86,3.141-1.5,4.125-1.332s1.181,1.609,1.968,1.72a2.878,2.878,0,0,0,3.459-1.668c1.033-2.081,3.026-3.33,3.764-2.914a4.2,4.2,0,0,1,1.993,3c0,1.249-.326,21.73-.49,22.322a1.314,1.314,0,0,0,.951,1.406c.459.037,1.05-.851.8-1.443s-.476-22.051-.41-22.458.755-1.665,1.115-1.665.674-.473,1.363-.846c0,0,.573-.525.573-.525s1.029-.388,1.607-.541,14.615,0,14.615,0Z" transform="translate(-24.619 -1137.938)"/>
</svg>
