<svg id="logo-morror" xmlns="http://www.w3.org/2000/svg" xmlns:xlink="http://www.w3.org/1999/xlink" width="111.579" height="72.603" viewBox="0 0 111.579 72.603">
  <defs>
    <linearGradient id="linear-gradient" x1="0.5" y1="0.192" x2="0.5" y2="1.043" gradientUnits="objectBoundingBox">
      <stop offset="0" stop-color="red"/>
      <stop offset="1" stop-color="#745a71"/>
    </linearGradient>
  </defs>
  <g id="cont">
    <path id="logo" d="M19.6,72.584c-.038-.084-.023-.036-.049-.221-.5-3.553.187-7.5.562-11.042-.019-1.621-.136-2.657-.111-4.407s.263-3.873.2-5.912a25.191,25.191,0,0,0-.42-2.5,83.5,83.5,0,0,0,1.1-9.746.3.3,0,0,0-.006-.114c-.007-.019-.025-.012-.043,0s-.03.011-.038,0c-.059.215-.114.423-.173.635-.127.011-.254.023-.381.037,0-.055,0-.058,0-.122a21.686,21.686,0,0,1,.75-4.156l-.088.009a34.034,34.034,0,0,1-3.035,3.493,11.117,11.117,0,0,1-1.791,3.2,1.238,1.238,0,0,1-.919.9c-.058.011-.118.075-.2.016s-.154-.272-.305-.241a3.5,3.5,0,0,0,.047.365c.446,1.769,1.11,3.444,1.462,5.222-.1,0-.065.118-.2.092-.014,0-.006.012,0,.027.016.031.033.062-.14-.059a7.232,7.232,0,0,1-1-2.379,11.366,11.366,0,0,1-1.066-2.071l-.181-.067c-.044.522-.059,1.274-.665,1.451-.027-.053-.088-.136-.109-.189a2.154,2.154,0,0,1-.052-.368,10.686,10.686,0,0,0,.132-1.719c-.1-.2-.074-.245-.221-.105-.647.615-.8,2.451-1.055,3.324-.071.2-.495.618-.644.584s-.125-.105-.149-.161a3.572,3.572,0,0,1-.08-.485,11.846,11.846,0,0,0,.64-3.885,1.73,1.73,0,0,0,.311-1.217c0-.006,0,0,0,0s.01.015-.026-.123a5.227,5.227,0,0,0-.731-1.164c-.091-.017-.01.009-.13.011s-.082.246-.128.294-.039.1-.194.035c-.917-.355-1.591-2.969-1.9-3.8a1.091,1.091,0,0,0-.109.021,18.761,18.761,0,0,1-.433,5.149,2.731,2.731,0,0,0-.843,2.64c-.123.149.03.525.056.723.011.075.119.579.138.647.069.241.463.783.464.876a17.537,17.537,0,0,1-.512,3.791A1.485,1.485,0,0,0,6.4,51.45c-.059.737-.155,1.932-.751,2.39-.1.074-.028-.086-.033-.1-.107-.3-.2-1.038-.664-1-.335,2.7-.495,5.38-.577,8.109.1.276.106,1.183-.085,1.333-.105.082-.122.079-.136.076s-.024,0-.084.041c-.029-.128-.065-.137-.1-.277a29.9,29.9,0,0,1-.336-8.033c-.046-.183-.167-.664-.2-.782a.415.415,0,0,1-.022-.153c-.033-.469.019-1.491.015-1.785s-.038-.28-.058-.322c-.146-.3-.62-.509-.645-.773a8.271,8.271,0,0,1,.12-1.58c-.041-.242-.081-.313-.127-.6s-.106-.79-.154-1.114c-.086.049-.153.172-.243.215a.733.733,0,0,1-.271.051c-.018,0-.013-.03-.02-.085a20.734,20.734,0,0,1,.237-4.929,20.893,20.893,0,0,1,.019-2.9,1.686,1.686,0,0,1-.621-.75c.078-1.689.113-4.874.006-6.1A14.769,14.769,0,0,0,1.485,30.7c-.269-.682-.409-.517-.527-1.016-.011-.045-.018-.058-.027-.1A12.019,12.019,0,0,1,.748,26.99C.531,26.4.322,25.849.16,25.235c-.046-.171-.109-.343-.145-.55a2.137,2.137,0,0,1,.579-1.511A18.37,18.37,0,0,0,1.942,19.3c-.035,0-.073.021-.107.024-.513.054-.776-.206-.95-.69a.383.383,0,0,1-.057-.289.76.76,0,0,1,.608-.513c.378-.059.954.432,1.043.933.093,0,.185,0,.275,0a5.39,5.39,0,0,0,.724-.03,3.823,3.823,0,0,1,.885-2.1c.162.094.311.2.483.288a4.193,4.193,0,0,1-.039-1.565c.1-.217.038-.18.172-.238a1.307,1.307,0,0,1,.288-.066c.055.081.209.456.232.512a13.711,13.711,0,0,1,.313,1.655A23.292,23.292,0,0,0,8.734,22.98c.256.707.139,1.056.362,1.876a8,8,0,0,0,1.932,2.55c.07.212.114.395.173.6-.306.1-.339.372-.346.655A9.591,9.591,0,0,1,13.39,32.8a1.268,1.268,0,0,1,.053.315,3.3,3.3,0,0,1-.206,1.176c.938-1.348.722-1.94,1.563-3.721a38.05,38.05,0,0,1,3.857-5.366c.279-1.556,1.856-3.04,2.735-4.2.362-1.155.651-3.033,1.684-3.843-.064-.071.092-.329.083-.349a3.336,3.336,0,0,1-.239-.45,10.372,10.372,0,0,0-.012-1.511c-.18-.918-.263-1.6-.407-2.41-.078-.436-.3-.846-.321-1.222a.765.765,0,0,1,.245-.589c-.038-.111-.145-.347-.175-.441a1.176,1.176,0,0,1-.044-.2A2.153,2.153,0,0,1,23.1,7.665c.637-.647,1.424-1.385,1.362-2.362a1.321,1.321,0,0,1,.932-.786.3.3,0,0,1,.083-.018,8.1,8.1,0,0,0,1.546.337,1.219,1.219,0,0,1,.787-.955c.073.216.148.431.222.647.823-.306.857-1.2.892-1.962a.963.963,0,0,1,.585-.418c.021.09.045.139.143.164a19.1,19.1,0,0,0-.124,3.678c.145.837.232.717.386,1.415a13.4,13.4,0,0,0-.1,2.794,8.174,8.174,0,0,1,.14,1.565,2.96,2.96,0,0,1,1.111-.516q1.505-.413,1.629-.413v.051a.839.839,0,0,1,.359-.1l-.053.1a1.807,1.807,0,0,1,.865-.307,2.628,2.628,0,0,0,.464-.053,10.421,10.421,0,0,1-1.373.664.046.046,0,0,0-.052-.052,13.668,13.668,0,0,1-2.292,1.016v.053h.149a.046.046,0,0,1,.051-.052.046.046,0,0,0,.053.052.046.046,0,0,1,.051-.052v.1c-.078,0-.145.068-.2.2h.046a2,2,0,0,1,.97-.456q.012-.136,1.269-.664l1.426-.657v.1c-.269.07-.4.137-.4.2l1.576-.71a.362.362,0,0,0,.149.051v.052a5.612,5.612,0,0,0-.859.4q-.359.1-.358.2a7.511,7.511,0,0,0,1.575-.658c0,.035.018.051.053.051a4.163,4.163,0,0,1,1.172-.559v.1q-.593.331-2.037.97v.052l1.172-.515v.052l.865-.352v.045a11.549,11.549,0,0,0,1.217-.56l.209.1a2.921,2.921,0,0,1,1.426-.813,4.718,4.718,0,0,0,1.471-.457q.9-.254,2.292-.77v.1q-.033,0-3.255,1.374v.052h.051q.124,0,2.285-.918l1.322-.613q.051,0,.051-.1a.046.046,0,0,1,.052.052l.508-.156c.239.082.359.148.359.2l-.813.611a.609.609,0,0,1-.408.558q0,.084-.508.505a2.841,2.841,0,0,1-.7,1.1l-.347,2.306a.529.529,0,0,0-.119.323,1.224,1.224,0,0,0,.043.327,2.385,2.385,0,0,1-.284,1.385q-.194,0-.4,1.95a.714.714,0,0,0-.167.447v.12a.3.3,0,0,0,.042.161,4,4,0,0,0-.2,1.264h.162a6.163,6.163,0,0,1,1.187-.777,5.121,5.121,0,0,0,.813-.938h.042v-.079l.042-.244L43.67,16.6l.042-.078a2.033,2.033,0,0,1-.042-.327l.041-.364a1.974,1.974,0,0,1-.164-.53c.013-.191.082-.286.2-.286l0-.567a.813.813,0,0,0,.119-.406,1.21,1.21,0,0,0-.079-.363,2.367,2.367,0,0,0,.077-.489h-.037l-.083.041a.445.445,0,0,1-.085-.208,2.25,2.25,0,0,0,.574-.687,3.157,3.157,0,0,1,.569-.573c.028,0,.056-.041.083-.121H44.8l.042-.083H44.76v-.041l.2-.246v-.036a1.66,1.66,0,0,1-.323.323v-.083a3.632,3.632,0,0,0-.695.734.573.573,0,0,0-.287.162h-.042v-.036c.048-.11.1-.167.167-.167v-.041H43.7c.065-.16.147-.239.245-.239l-.12.2h.037l.287-.328v-.042l-.121.084v-.245a3.492,3.492,0,0,1,.485-.734,4.5,4.5,0,0,1,.575-.61l-.042-.083c0-.152.136-.288.407-.406V9.686h.084q.078.015.078.083l-.078.125h.079a.851.851,0,0,1-.162.239h.042a4.45,4.45,0,0,1,.611-.61h.042l-.449.531.042.078a.038.038,0,0,0-.042.042l.085.041c.007-.056.033-.083.078-.083H45.9l-.119.411h.042l-.042.078c.007.055.033.083.079.083l.125-.083.079.041q0-.057.245-.245v.041c-.062.163-.13.245-.2.245v.245q-.412.525-.491.526h-.037v.166c.024,0,.036-.014.036-.041l.084.041.084-.042v.042a2.587,2.587,0,0,1-.407.406q0,.073-.329.287l-.366.485v.041h.042a6.719,6.719,0,0,0,.772-.813h.083l-.042-.083.324-.287a.321.321,0,0,0,.125.041l.2-.245a.292.292,0,0,1-.043-.12l.084.041.078-.125a.069.069,0,0,0-.078-.078h-.042c0,.045-.042.113-.126.2l.042.078a.39.39,0,0,0-.2.043v-.079a3.152,3.152,0,0,1,.534-.573v.083c.194-.271.316-.406.364-.406a3.191,3.191,0,0,1,.94-1.141h.042l-.448.526h.119a1.281,1.281,0,0,0-.245.328.037.037,0,0,1,.042.041l-.078.042v-.083h-.084a.777.777,0,0,1-.328.61.282.282,0,0,0-.12-.041V10.9l.083-.042-.579.885L47.5,10.371h.042a2.67,2.67,0,0,1-.574.859c-.055.007-.149.129-.281.365.042-.092-.02-.032-.177.161a1.275,1.275,0,0,1,.185-.041q0-.141.977-.326a5.481,5.481,0,0,1,2-.7,1.873,1.873,0,0,1,.9-.289c0-.107.327-.216.984-.325q0-.094.7-.169a.54.54,0,0,1-.575.329,3.1,3.1,0,0,1-1.019.409l-.162.161h.037A10.383,10.383,0,0,1,51.6,10.6c0,.041-.123.109-.372.2a.765.765,0,0,1-.365.287v-.041a1.405,1.405,0,0,1-.492.168v.12H50.5a1.579,1.579,0,0,1,.817-.246c0-.028.04-.056.12-.083l.2.041v.042a1.9,1.9,0,0,1-1.019.569q0,.068-.816.289c0,.028-.041.041-.125.042v.041h.084a8.5,8.5,0,0,1,1.145-.206.3.3,0,0,0,.163.041.331.331,0,0,1,.162-.042q-.01.125-.732.408,0,.1-.618.163v.042l.2,0c.339-.028.517-.042.534-.043a.038.038,0,0,1,.042.041l.2-.041h.246q.109,0,.247.488v.161c0,.112-.219.179-.654.2v-.036l-.371.12V13.29c-.08.028-.12.056-.12.083l-.083-.041a4.02,4.02,0,0,1-.9.122h-.247a3.511,3.511,0,0,0-.816.127l-.162.12.042.405v.041l-.04.405q.12,0,.163.41-.037,0-.2.323l.247.405v.328a2.856,2.856,0,0,0-.082.322v.042h.125a18.368,18.368,0,0,1,1.674-.774,4.558,4.558,0,0,1,.206.728v.083q0,.582-.243.734-.192.468-1.222.814a2.815,2.815,0,0,1-.612.288V18.3h.078c0,.08-.055.12-.162.121v.041h.084q-.125.089-.207.769-.026.016-.236,1.586c.021,0,.061.041.121.124l-.042.2,0,.323c.011.055.039.084.084.084h.042c.188-.114.281-.236.281-.365l.085.036a.66.66,0,0,1,.328-.526,4.183,4.183,0,0,1,.61-.818c0-.111.081-.2.245-.281l.2-.37h-.168a.449.449,0,0,1,.084-.24l-.084.037h-.037a4.189,4.189,0,0,1,.407-.692h.042c0,.027.012.041.037.041l-.036.083V18.5h.036a.29.29,0,0,1,.042-.125l.084.041h.042a.172.172,0,0,1,.12-.161c0-.028.068-.1.2-.2a.3.3,0,0,0,.168.078v.041l-.328.407.084.041h.078a.6.6,0,0,1,.287-.448L50.76,18h-.079a10.528,10.528,0,0,0,.736-.854l.078.041q.256-.246.366-.246v.078c-.06,0-.127.11-.2.328l-.2.161h-.036v-.041l.036-.078h-.037l-.042.078v.041l.042.083h-.042l-.084-.041a.19.19,0,0,1-.12.2,1.991,1.991,0,0,1-.448.609c.024,0,.037.015.037.041-.073,0-.141.11-.2.328-.073,0-.18.15-.323.448a6.276,6.276,0,0,0-.736.73.294.294,0,0,1-.043-.161h-.042l-.036.161.078-.041v.166a6.635,6.635,0,0,1,1.306-1.022c0-.024.042-.036.126-.037h.12c.056.006.084.033.085.078h-.042l.126.244c-.056.007-.083.035-.082.083l.042.244q.056,0,.245-.246H51.3v.078h-.042a.069.069,0,0,1-.078-.077,2.372,2.372,0,0,0,.485-.532q.126-.016.778-.813h.042v.12l-.371.448.084-.042h.042v.041q-.355.407-.449.407V19.1h.042a.288.288,0,0,1,.121-.042v.083c-.327.171-.492.28-.492.324a.445.445,0,0,1-.16.286h.082l.121-.083h.042a.967.967,0,0,0-.161.2l.078.041c0-.075.109-.2.329-.365l-.042-.083c0-.152.135-.289.407-.407v-.041h.084c.053.01.079.037.079.083l-.078.12h.078a.766.766,0,0,1-.162.245H52.2a4.45,4.45,0,0,1,.611-.61h.042l-.449.531.042.078a.038.038,0,0,0-.042.041l.085.042c.007-.056.033-.083.078-.083h.042l-.119.405h.042l-.042.083c.007.055.033.083.079.083l.126-.083.078.041q0-.057.245-.245v.041c-.063.163-.13.245-.2.245v.245q-.412.525-.49.526h-.037v.166c.024,0,.036-.014.036-.041l.07.035,0,0,.234-.209a.245.245,0,0,0,.09.032l.151-.177a.214.214,0,0,1-.031-.088l.057.031.057-.088a.051.051,0,0,0-.058-.058h-.025c0,.031-.031.079-.094.145l.032.058a.272.272,0,0,0-.148.032v-.062a2.362,2.362,0,0,1,.387-.412v.062c.139-.2.228-.3.265-.3a2.31,2.31,0,0,1,.679-.823h.032l-.323.381h.083a.857.857,0,0,0-.177.24.028.028,0,0,1,.032.031l-.058.026v-.057h-.063a.573.573,0,0,1-.234.443.222.222,0,0,0-.089-.032v.062l.063-.031v.062l.558-.417h.032a1.9,1.9,0,0,1-.417.619c-.042.007-.109.1-.2.266h.057q0-.119.564-.531h.031c-.042.076-.073.114-.094.114l.031.062a1.385,1.385,0,0,0-.176.265h.031c.038-.089.076-.139.115-.145,0,.017.011.025.031.025l-.114.208v.032c.018,0,.087-.07.208-.208h.027a.214.214,0,0,0-.057.119.2.2,0,0,1,.031.088l-.328.354a.024.024,0,0,1,.027.026l-.059.032c0-.021-.01-.031-.031-.031,0,.118-.038.177-.114.177-.025,0-.1.08-.241.24l-.057.026h-.026c.157-.166.235-.275.234-.323l-.088.058v-.084l.031-.151-.125.089a.115.115,0,0,0-.053-.088l-.063.031-.063-.031-.115.12h.032l.084-.062h.031a.363.363,0,0,1-.146.3l.032.062v.026l-.063-.026h-.032c0,.028-.038.066-.114.115-.027.139-.1.208-.208.208l.056-.119a1.075,1.075,0,0,0-.385.417l-.053-.031-.152.12v-.063a1.576,1.576,0,0,1,.2-.234l-.026-.057c0-.041.029-.062.088-.062a.2.2,0,0,1-.031-.088h-.032q0,.052-.235.182H51.86l.057-.093-.032-.058.235-.3h-.052v-.057h.026l.058.031-.032-.062a.469.469,0,0,0,.126-.118v-.148c-.056,0-.085-.039-.085-.119h-.042a4.238,4.238,0,0,1-.61.73q-.459.573-.527.573l-.167.161h-.042V22.23c-.16.215-.269.323-.324.323a.426.426,0,0,1-.084-.2,3.276,3.276,0,0,0,.491-.485v-.041a6.247,6.247,0,0,1-.982.611v.041l-.079-.041a7.2,7.2,0,0,0-1.348.856H48.4c-.192-.037-.288-.091-.289-.16-.167,0-.344.164-.527.49l-.328.811a.868.868,0,0,1-.492.205V24.6c-.024,0-.036.014-.036.042q-.566,0-.9-.85c.051-.246.077-.381.077-.405a.86.86,0,0,1-.367-.691,2.736,2.736,0,0,0,.529-1.467,2.6,2.6,0,0,0,.161-.567c0-.024-.015-.133-.043-.327h-.042a3.333,3.333,0,0,1-.857.777v-.042l.2-.286-.084.042h-.036V20.78l.569-.73a1.307,1.307,0,0,1-.207-.774,2.689,2.689,0,0,0,.53-1.384c.024,0,.037-.012.037-.036l-.037-.083.077-.364a.321.321,0,0,0-.042-.166l.081-1.378a5.588,5.588,0,0,1-.124-.977,6.872,6.872,0,0,0,.076-.811v-.2l-.323.2-.084-.166.041-.078a.293.293,0,0,1-.042-.125l.041-.078a.293.293,0,0,1-.042-.125h.042l-.042-.078a.037.037,0,0,1,.042-.042,4.122,4.122,0,0,1-.06-.545c-.041.171-.133.26-.278.26l.083-.161c-.216.1-.324.24-.323.406a8.2,8.2,0,0,1-.122,1.586.038.038,0,0,0,.042.042,8.677,8.677,0,0,1-.4,1.908.037.037,0,0,0,.042.042q-.122.815-.163,1.341c-.024,0-.037.04-.037.12l0,.369q0,.036-.042.036.042.113.167,1.34-.031.449-.083.448a.28.28,0,0,0,.042.124q-.11,1.857-.109,2.09a1.912,1.912,0,0,0,.127.608H44.8l.042.083c-.027.34-.041.543-.04.609a2.525,2.525,0,0,0,.207.773q0,.141-.612.61c0,.1-.2.371-.591.784.358-.142.9-.364,1.643-.672h.069c0,.1-.191.209-.575.314v.069l.42.086a4.036,4.036,0,0,1,2.788-.787,19.923,19.923,0,0,1,3.365-.409v-.069c-.163,0-.245-.051-.245-.156V24.48a28.782,28.782,0,0,0,3.384.215,17.684,17.684,0,0,1,4.521,1.7c.339.24.637.462.916.674.236-.1.514-.211.843-.348H61c0,.084-.156.169-.469.255v.056l.342.071a3.3,3.3,0,0,1,2.275-.643,13.977,13.977,0,0,1,1.593-.245.717.717,0,0,1-.6-.7v-.11q.077-.412.077-.451a.674.674,0,0,0-.078-.225c-.376.027-.652.041-.83.041H63.23c-.255,0-.558-.3-.91-.9a11.339,11.339,0,0,1-.3-1.758.932.932,0,0,1-.046-.285l-.169-.019a.641.641,0,0,0-.511.413l-.465.307a2.6,2.6,0,0,1-.716-.1q-.157.614-.413.614a.677.677,0,0,1-.77-.761c-.071-.139-.122-.208-.153-.208h-.157a5.272,5.272,0,0,1-.1.613c0,.075.02.262.055.561q-.05.679-.05,1.122.119,0,.16.509c-.157.34-.26.509-.307.509h-.106c-.376-.078-.566-.263-.567-.559.062,0,.113-.389.155-1.168q.118,0,.149-.666a3.559,3.559,0,0,1-.1-.666v-.1l.045-.359c-.066,0-.1-.035-.1-.1l.052-.1-.053-.1.1-.255-.572-2.444.156-.562a3.352,3.352,0,0,0-.108-.867h.053a5.2,5.2,0,0,1-.26-1.017l.149-.562-.047-.358,0-.613a14.692,14.692,0,0,1,.3-1.632v-.053q-.055-.553-.056-.966l.051-.358a.484.484,0,0,1-.053-.255q0-.529.87-1.281.244-.013.563-.661c.122-.169.207-.255.256-.255a1.7,1.7,0,0,1,.873-.256v.045a10.391,10.391,0,0,1,1.846-.358A12.964,12.964,0,0,1,65,10.382a.046.046,0,0,0,.052.052L65,10.74l.054.359q-.4,1.28-.667,1.326h-.256l-.513-.456-.461,0a1.11,1.11,0,0,1-.619-.358q-.413.139-.413.256v.15a.046.046,0,0,0,.052.052c-.051.409-.153.614-.307.614l-.2-.052a.4.4,0,0,1-.2.053l-.416-.456V12.18l.1-.358-.105-.053c-.376,0-.565.139-.563.413l-.351,1.475a8.163,8.163,0,0,0-.408,1.639l.052.1a1.246,1.246,0,0,1-.307.51,7.379,7.379,0,0,1,.154.919,2.27,2.27,0,0,0-.607,1.483,1.766,1.766,0,0,0,.923,1.426,3.07,3.07,0,0,0,.467.045l.1-.046.106.045a3.882,3.882,0,0,0,1.448-.379,2.023,2.023,0,0,1-.133-.645q.018-.527.076-.527l-.039-.076v-.374c0-.019.024-.268.069-.747L62,16.763l.186-.56-.038-.263.109-.6c0-.054-.012-.191-.036-.412q.082-.277.862-.64a2.555,2.555,0,0,1,.867-.414c.354.066.532.2.532.41v.038a1.847,1.847,0,0,1-.225.676l0,.3-.154.412v.263a2.888,2.888,0,0,1-.108.675q.028,1.609.154,1.609l-.025.051a6.347,6.347,0,0,1,.8-.273v.052q0,.484-.772.864l-.247.244a2.343,2.343,0,0,1,.062.37l0,.019,1.01-.427.053.1q0,.143-.819.668l-.3.332c0,.037,0,.081-.007.121a1.594,1.594,0,0,1,.868-.351c.069.009.105.041.105.1a.909.909,0,0,1-.361.36c-.258.306-.464.533-.623.694v.189a1.412,1.412,0,0,0,.419,1.158c0,.035.038.071.116.109h.6a4.377,4.377,0,0,0,1.54-.978,1.322,1.322,0,0,0,.263-.863c0-.134-.014-.37-.041-.709a4.276,4.276,0,0,0,.186-.747c-.082-.226-.131-.34-.151-.34l.038-.259v-.489c0-.3.029-.45.075-.45L66.9,17.65c0-.25-.016-.55-.042-.9q.036-1.2.216-3.329v-.076l.038-.187h.038q.092,0,.189.45v.3c0,.026.011.038.034.038l-.033.077q-.037.689-.036.858h.038l-.038.076V15.1c0,.077.012.115.038.115l-.038.186,0,1.274c.007.048.031.071.073.071l0-.3a1.078,1.078,0,0,1,.114-.637.034.034,0,0,0-.038-.038l.18-2.434H67.6l.038-.077,0-.45h.078a1.7,1.7,0,0,1,.229.823l0,1.2a.32.32,0,0,0,.034.148c0,.025-.011.038-.033.038a2.936,2.936,0,0,1,.073.561h.038l0-.6a.034.034,0,0,1,.039-.038l-.039-.076,0-.335a.277.277,0,0,1,.039-.149,2.987,2.987,0,0,1-.079-.412.257.257,0,0,0,.038-.115h-.038l.038-.072,0-.449a.363.363,0,0,1,.187-.375,6.872,6.872,0,0,1,.121,1.494l0,.565c0,.488-.023,1.026-.073,1.609v.072h.038a16.494,16.494,0,0,0,.144-1.982h.039a.035.035,0,0,0-.039-.039l.038-.186c0-.026-.013-.038-.039-.038l.038-.187v-.148l-.04-.225a.433.433,0,0,0,.038-.225.034.034,0,0,0-.039-.038c.025-.3.063-.445.115-.445a4.5,4.5,0,0,1,.113.747v.374a.034.034,0,0,1-.039.038l.04.077v.109l-.038.45a.035.035,0,0,1,.039.039h-.039l.039.071v.34l-.038.374a.033.033,0,0,1,.038.038c-.025,0-.038.011-.038.033h.038c0,.026-.013.038-.038.038l.04.153a2.284,2.284,0,0,1-.076.6c0,.022.012.033.038.033a1.325,1.325,0,0,1-.072.3l.034.076a11.385,11.385,0,0,0-.256,1.682q.036.469.035.527l-.033.335.034.186a8.626,8.626,0,0,0-.256,1.572,1.981,1.981,0,0,1,.039.379c-.1.588-.189,1.024-.26,1.308a1.558,1.558,0,0,0-.336.49,2.276,2.276,0,0,1-.8.6.686.686,0,0,0-.375.6l-.225.226h-.337c-.177-.076-.267-.164-.267-.263q-.1,0-.225.489l.038.072,0,.565a.034.034,0,0,0,.038.038c0,.122-.081.214-.225.28.214-.015.431-.031.658-.041v-.057c-.133,0-.2-.042-.2-.127V25.82A23.34,23.34,0,0,0,68.451,26c.13.031.252.069.38.1.017-.088.053-.186.064-.244a.968.968,0,0,0-.032-.275,2.821,2.821,0,0,1,.1-.674c.014-.189-.02-.674-.008-.709a3.8,3.8,0,0,0,.186-.663c-.02-.237-.105-.452-.117-.571a.69.69,0,0,1-.007-.166c.022-.258.158-.411.15-.658a1.64,1.64,0,0,0-.291-.67.884.884,0,0,1-.049-.328c0-.114-.011-.338-.006-.45a10.164,10.164,0,0,1,.308-1.969,3.428,3.428,0,0,1-.384-1.064c-.011-.253.018-.182.017-.388a5.087,5.087,0,0,1,.147-.708,1.438,1.438,0,0,0-.038-.272A15.809,15.809,0,0,1,69.12,13.4c.184-.333.069-.2.165-.323.053-.07.053-.041.056-.013s.007.045.042.017c.2-.337.792-.888,1.119-.85s.278.284.414.368a1.182,1.182,0,0,0,.178.107.532.532,0,0,0-.04.333,1.38,1.38,0,0,0,.068.177A2.342,2.342,0,0,0,72.6,14.393a.7.7,0,0,0,.113.029,1.389,1.389,0,0,1,.773.165c.067.093.008.057.014.072.058.157-.294.213-.352.2a.187.187,0,0,1-.121-.062c-.021-.039.109-.076.095-.114,0-.011.031,0-.06-.028a3.888,3.888,0,0,0-.607-.067c-.019,0-.082-.057-.162-.024a1.472,1.472,0,0,0-.416.209.615.615,0,0,0-.093.3c-.018.075.008.032.024.069s-.046.028-.05.052c-.051.259-.044.541-.085.808a2.069,2.069,0,0,1-.376.726,2.226,2.226,0,0,0,2.04.469c.162-.024.541-.429.694-.5a.852.852,0,0,1,.343-.089c.016,0,.016.014.042.018s.068.033.031.045a.363.363,0,0,1-.078,0c-.065,0-.142,0-.13.03.017.053.166.057.234.08s-.1.023-.05.08a.416.416,0,0,1-.076.353c-.065.05-.154.114-.162.118-.225.105-1.2.642-1.315.156a7.119,7.119,0,0,1-1.8-.315c-.166-.084-.187-.3-.286-.285s-.05.037-.051.131a2.956,2.956,0,0,1,.095.527c.11.057.211.1.314.152-.02.069-.167.077-.21.109s0,.092,0,.109a.519.519,0,0,0,.32.3c.119.021.207-.054.278-.055a.211.211,0,0,1,.138.029c.043.024.015.075,0,.109s-.152-.012-.113.078a1.322,1.322,0,0,0,.353.346,3.139,3.139,0,0,1,.376-.041c.08,0,0,.033.047.036a1.677,1.677,0,0,0,1.1-.443,1.071,1.071,0,0,0,.154,0c.039,0,.077,0,.111,0a2.493,2.493,0,0,1-.579.534.573.573,0,0,1-.275.03,3.1,3.1,0,0,0-.994.048c-.22-.086-.456-.184-.674-.261-.036-.011-.095-.015-.109,0s-.02.135-.025.165a.056.056,0,0,0,0,.041,1.031,1.031,0,0,0,.8.679.589.589,0,0,0,.22,0c.021-.007.051-.025.073-.032s.012.009.016.021.009.039.025-.006c.026-.072.177-.208.312-.1a.14.14,0,0,1,.04.069.163.163,0,0,1,0,.071c-.082-.062-.615.068-.633.075a.263.263,0,0,1-.165-.031c-.067-.027-.128-.053-.149-.02-.04.062-.029-.01.007.095a.583.583,0,0,0,.464.264,1.969,1.969,0,0,0,.209-.034.134.134,0,0,1,.076,0c.01.006.021.062,0,.068a1.971,1.971,0,0,1-.212.041c-.006,0,0-.009,0-.018s0-.018,0-.017c-.023.006-.038.039-.075.037-.356-.015-.619-.323-.845-.584-.03-.034-.1-.169-.13-.208-.008-.01-.024,0-.041.013s-.027.019-.035.017a1.5,1.5,0,0,0,.552.628c.01.008,0-.011,0,.043s-.126.028-.139.089c-.019.095.174.358.2.47s-.029.145-.018.258a4.734,4.734,0,0,0,.631,1.032,1.716,1.716,0,0,0,1.022.52,1.531,1.531,0,0,1-.684-.194,2.617,2.617,0,0,1-1-1.2c-.063-.12-.436-.793-.518-.956s-.386-.806-.494-.695a11.211,11.211,0,0,0-.122,1.25c-.006.023.014.208.011.239a3.469,3.469,0,0,0,.109.809c.039.139-.045.079-.021.14s.06.086.048.123c-.007.019-.015.013-.023.006s-.014-.011-.018,0,.02,0,.047.043-.025.127-.025.192a2.334,2.334,0,0,0,.025.379c.02.119-.118.238-.091.34s.26.134.25.336a6.19,6.19,0,0,1-.226.792,1.575,1.575,0,0,0,.07.376,2.793,2.793,0,0,0-.094.46c.006.042-.006.047-.014.046a.067.067,0,0,1,.02.011c.059.041-.081.141.185.035a5.358,5.358,0,0,1,1.29-.6,4.4,4.4,0,0,0,.781-.354,7.048,7.048,0,0,0,.923-.53,1.162,1.162,0,0,1,.525-.144c.327-.024.466.195.478.491,0,.031-.024.053-.03.111s.038.122.05.211a3.479,3.479,0,0,0,.011.454c.031.083.057.167.069.2.078.2-.134.416-.247.45l-.051.017,0,0s-.007,0-.034,0a1.586,1.586,0,0,1-.165-.01.968.968,0,0,0-.225,0,7.439,7.439,0,0,1-1.247.336c-.029,0-.047-.031-.074-.041s-.038.041-.047.043a.639.639,0,0,1-.173-.025c-.1-.021-.2-.042-.232-.006a2.024,2.024,0,0,1-1.531.938,4.835,4.835,0,0,0-.722.126,13.47,13.47,0,0,1,2.1.919A10.053,10.053,0,0,1,74.371,29.3a.674.674,0,0,0,.079-.286l-.08-.268a6.269,6.269,0,0,1,1.559-1.587c-.127-1.207-.265-3.621-.284-4.121a5.02,5.02,0,0,0,.051-.589l-.046-.268a6.6,6.6,0,0,0,.149-1.135,2.333,2.333,0,0,0,.243-.671q-.047-1.111-.323-1.309c-.054,0-.087-.153-.1-.464l-.039,0a4.04,4.04,0,0,1-.506.995l.014.348a.665.665,0,0,0,.088.31q.05,1.242-.3,1.256a1.54,1.54,0,0,1,.092.3c-.025.124-.163.247-.416.37a.416.416,0,0,1-.408-.3q-.01-.243.34-.4l-.051-.272,0-.075q-.01-.238.445-.64a3.216,3.216,0,0,1,.019-.508c-.106,0-.162-.031-.164-.108l0-.04a2.652,2.652,0,0,0,.255-.517c-.1-.307-.222-.459-.369-.453l-.084-.11,0-.08a.276.276,0,0,1,.3-.32l.075,0,.123.069.074,0a2.309,2.309,0,0,1,.032-.235l-.125-.224a2.158,2.158,0,0,1,.141-.359.036.036,0,0,1,.041.039l.073-.044c.211.019.32.106.327.261l.04,0a1.381,1.381,0,0,1,.024-.388l-.041,0,.066-.237a.7.7,0,0,1-.716-.36l0-.079q-.015-.347.3-.36a.51.51,0,0,1,.322.142l.074,0a3.036,3.036,0,0,1,.364-.79l-.006-.159a.34.34,0,0,0-.173-.3.067.067,0,0,1-.072.078l-.08,0c-.078-.02-.119-.095-.124-.224a.27.27,0,0,1,.152-.086l-.043-.078-.008-.194c-.1,0-.157-.032-.16-.108l0-.119.038-.076q-.11,0-.176-.381c.044-.238.158-.359.341-.367L75.647,12.5l-.04,0c-.093,0-.167.136-.219.4a1.317,1.317,0,0,1-.614.3.312.312,0,0,0-.157-.033q-.216.009-.83.774l-.16.006a.773.773,0,0,1-.64-.328,2.649,2.649,0,0,1-.536.221,1,1,0,0,1-.651-.6.293.293,0,0,1-.047-.152l0-.075.233-1.058.3-.172a.036.036,0,0,0,.042.038l-.006-.154-.2.007c0,.13-.044.2-.148.2l-.043-.078-.006-.154.115,0,0-.04-.155.006-.009-.233q-.016-.4.986-.735c.762-.24,1.175-.36,1.238-.363l0,.04a.627.627,0,0,1,.273-.09l-.038.08A1.38,1.38,0,0,1,75,10.039a2.129,2.129,0,0,0,.354-.054,7.941,7.941,0,0,1-1.035.548.035.035,0,0,0-.041-.038,10.573,10.573,0,0,1-1.729.846l0,.04.115,0a.035.035,0,0,1,.038-.041.035.035,0,0,0,.042.038.035.035,0,0,1,.038-.041l0,.079c-.06,0-.109.056-.149.161l.035,0a1.53,1.53,0,0,1,.731-.378q.006-.1.954-.545l1.075-.546,0,.074c-.2.062-.305.118-.3.167l1.189-.59a.257.257,0,0,0,.116.035l0,.041a4.134,4.134,0,0,0-.648.334c-.181.061-.27.115-.269.165a5.756,5.756,0,0,0,1.19-.55c0,.027.016.039.042.038a3.2,3.2,0,0,1,.882-.463l0,.075q-.445.271-1.535.8l0,.04.884-.429,0,.04.655-.294v.034a9,9,0,0,0,.918-.464l.163.073a2.246,2.246,0,0,1,1.07-.665,3.64,3.64,0,0,0,1.116-.392q.682-.221,1.737-.657l0,.079q-.025,0-2.458,1.147l0,.041.04,0q.094,0,1.727-.77l1-.508q.04,0,.037-.075a.036.036,0,0,1,.042.038l.385-.135c.187.055.28.1.282.143l-.607.492a.465.465,0,0,1-.3.439c0,.043-.122.178-.375.4q-.364.91-.629.92l-.728.3a2.449,2.449,0,0,1-1.227.631l-.08,0-.237-.031a1.767,1.767,0,0,1-.7.262q-.017.08-.571.376a.869.869,0,0,0,.092.3,2.976,2.976,0,0,1-.157.941l.042.072c-.02.184-.056.276-.109.278l-.39.016a1.429,1.429,0,0,0-.066.35,10.116,10.116,0,0,1,.292,1.391l-.033.156a5.911,5.911,0,0,1,.162,1.043,3.489,3.489,0,0,0-.052.7l.012.307c.119.38.18.584.18.614a3.188,3.188,0,0,1-.269,1.026.774.774,0,0,1-.327.6.278.278,0,0,1-.035.116.569.569,0,0,0,.374.572q.211-.009.373,1.423l.008.194a1.854,1.854,0,0,0-.1.472l.012.307.18,3.449c.285-.11.6-.222.945-.336a3.509,3.509,0,0,1,2.792-.907v-.346c0-.095.069-.142.207-.143V23.79l-.064-.126.285,0a1.562,1.562,0,0,0,.971.47l.7,0c.35,0,.984.4,1.894,1.2.433-.24.871-.461,1.315-.653-.678-.281-1.019-.571-1.02-.867a3.314,3.314,0,0,1-.312-1.17,3.26,3.26,0,0,1-.176-1v-.216a.337.337,0,0,1,.043-.173,21.242,21.242,0,0,1-.532-2.554v-.045a.494.494,0,0,0,.127-.306,2.411,2.411,0,0,1-.309-.781q-.127,0-.22-.776l0-.521c0-.03-.013-.044-.038-.044l.038-.089v-.083A3.08,3.08,0,0,1,85,15.71l0-.993-.046-.26a3.11,3.11,0,0,1,.126-.782l-.039-.089v-.044a3.826,3.826,0,0,0,.215-1.082c.063,0,.12-.174.171-.522a3.028,3.028,0,0,0,.477-1.255,1.4,1.4,0,0,1,.087-.566h.173a.5.5,0,0,1,.392.259v.083l-.044.222c.06,0,.1.084.135.255h.172a.783.783,0,0,0,.435-.434,3.272,3.272,0,0,0,.394-.695l.218-.045h.218L88.3,9.8q.287-1.344,1.084-1.345,0-.089.654-.091h.179c.056,0,.113-.144.171-.433l-.045-.088c.016-.011.117-.156.305-.434a1.7,1.7,0,0,1,.435-.173l.308,0q.96,0,.967,1.993a3.2,3.2,0,0,0,.7,1.3c.071.152.153.363.244.625a1.037,1.037,0,0,0-.051-.23.894.894,0,0,1-.014-.143,14.041,14.041,0,0,1-.318-1.839c.013-.19.027-.183.04-.177s.017.009.025-.046c.011-.079-.021-.066-.016-.09.075-.367.291-.73.7-.535.011.006-.061.116.016.012a6.294,6.294,0,0,1,1.888-.161c.022,0,.614-.072.724-.093a.2.2,0,0,1,.062.027c.034.017.071.034.084.024s-.016-.044,0-.044c.051,0,.013.04.11.043.028,0-.145.015.088,0A9.275,9.275,0,0,0,98,7.479c.141-.049.674-.23.977-.353a9.7,9.7,0,0,1,3.313-.679.44.44,0,0,1,.091,0c.365.125.637.278.678.7.01.092.038,0,.032.207s-.258.653-.3.961c-.044.326-.222.976-.479,1.13a.862.862,0,0,1-.466.163c-.156.022-.017,0-.162,0a1.328,1.328,0,0,1-.536-.207,1.556,1.556,0,0,1-.731.224c-.027,0-.079-.006-.085-.006-.112,0-.623-.122-.647-.109a3.26,3.26,0,0,1-.6.292.49.49,0,0,1-.265-.052.592.592,0,0,0-.148-.056,4.017,4.017,0,0,0-2.325,1.026c-.079.059-.14.083-.145.212s.074.486.087.621-.049.187-.051.28c-.006.307.022.6.007.9,0,.1-.014.254-.017.324,0,.041.011.038.024.036s.019,0,.024.011c.01.036-.044.065-.056.091s0,.07-.013.084a1.948,1.948,0,0,0,.986-.625c.213-.358.478-.381.808-.452a1.591,1.591,0,0,1,.792-.426c.1-.038.266-.168.385-.112s.129.272.139.336,0,.032,0,.052a4.362,4.362,0,0,1-.625,1.578c-.186.385-.332.842-.888.9a.733.733,0,0,1-.2-.033.589.589,0,0,0-.364-.007,6.231,6.231,0,0,1-.821.507c-.012,0-.4.488-.495.507-.011.139-.024.283-.021.395s-.051.121-.054.22.042.055.025.219-.061.326-.076.594c-.033.63.007,1.45.034,2.12,0,0-.013,0-.023,0s-.017,0-.018,0c0,.024.033.069.032.1-.01.2-.051.533-.059.7s.02.163.011.293c0,.036-.049.037-.049.083,0,.02,0,.019.007.019s.018,0,.035.045a.9.9,0,0,1-.093.429,1.541,1.541,0,0,0-.037.271c-.007.036-.017.034-.028.033a.017.017,0,0,0-.019.009c-.016.024.017.021.032.072s-.065.195-.082.254a4.284,4.284,0,0,0-.132.765c.633-.133,1.269-.25,1.9-.37-.015-.029.027-.042-.015-.074s-.225-.055-.234-.123-.01-.1-.017-.165a20.116,20.116,0,0,0,3.167-.242,20.681,20.681,0,0,1,4.216.8,6.788,6.788,0,0,1,3.138,1.9c.259-.015.506.246.69.446a2.323,2.323,0,0,1,1.264,1.317,8.841,8.841,0,0,1,.827,2.265c.2,3-1.312,5.648-2.579,8.217-1.2,1.5-2.422,2.991-3.762,4.366a4.759,4.759,0,0,1-1.657,1.114c-.343.742-1.605,1.009-2.268,1.255-.095.035-.31.2-.268.233a20.713,20.713,0,0,1,3.056,2.8c.456.113.365.259.739.636a4.381,4.381,0,0,1,.827,1.641c.422.3.612,1.054.82,1.468a4.671,4.671,0,0,1,1.46.927,1.925,1.925,0,0,1,1.334,1.407,9.012,9.012,0,0,0,.968,1.5,3.74,3.74,0,0,1-.027.686c-.02.073-.078.052-.134.031s-.106-.042-.115.029-.022.033-.031.009l0-.012c0,.021.015.068.032.16a9.6,9.6,0,0,0,1.163,2.049c-.036.13.02.081-.05.213s-.654.049-.792-.022a2.219,2.219,0,0,0,.643,1.478c0,.6.536,1.224.834,1.7.11.368.015,1,.317,1.282a2.2,2.2,0,0,1,.718,1.029c-.135-.048-.286-.076-.426-.116a8.625,8.625,0,0,0-1.408-2.133c-.614-1.341-1.275-2.844-2.706-3.472,0-.046-.114-.111-.137-.139a.06.06,0,0,1,.01-.075.472.472,0,0,1,.158-.015c.09,0,.181,0,.206-.049a3.391,3.391,0,0,1-1.644-1.375,2.634,2.634,0,0,0-1.066-.88.223.223,0,0,0-.106-.266c-.065-.013-.081-.035-.094-.018a2.413,2.413,0,0,0-.144.3c-.08-.016-.162-.034-.242-.049a14.087,14.087,0,0,0-3.071-3.58,2.451,2.451,0,0,0-1.914-.984,5.816,5.816,0,0,1-1.884-1.69c-.564-.182-.479-.368-1.215-.777a28.909,28.909,0,0,1-2.33-1.777,3.554,3.554,0,0,0-1.692-.709.078.078,0,0,1-.056-.022c-.032-.023-.076-.045-.279.038a4.766,4.766,0,0,0-1.182,2c-.523.238-.478,1.157-.528,1.666a6.448,6.448,0,0,0-.06.779c.012.205.149.79.164.938s0,.07,0,.119a15.616,15.616,0,0,1-1.711,4.2c-.2.038-.317-.065-.534-.085A12.658,12.658,0,0,1,86.631,56.8c-.163.151-.269-.01-.355-.17-.074-.139-.135-.277-.2-.214-.514.468-.353-.225-.523.862a49.916,49.916,0,0,1-1.484,5.272c.078.151-.1,2.351-.326,2.155-.077-.068-.121-.015-.145.037-.047.1-.02.2-.009-.534a44.116,44.116,0,0,1,1.2-6.917c.08-.517.139-.82.216-1.252a7.176,7.176,0,0,1-.09-1.616.183.183,0,0,0,.065-.008.117.117,0,0,1,.1.006c-.051-.657-.234-.375-.171-1.271s.409-2.969.6-4.073c-.026-.015-.059.008-.091.032a.146.146,0,0,1-.075.036.5.5,0,0,0-.088.006.226.226,0,0,1-.156-.013c-.025-.02,0-.126.01-.2.033-.165.073-.329.11-.494-.14.118-.278.236-.41.342-.172.844-.326,1.693-.468,2.551.044.188-.034.78-.172.861-.076.044-.086.041-.1.038s-.015,0-.058.019c-.007-.086-.03-.095-.038-.19a13.1,13.1,0,0,1,.077-2.733,5.161,5.161,0,0,1-1.013.542,31.415,31.415,0,0,1-3.219,1.6c-.381,0-.587.023-.619.065a7.67,7.67,0,0,1-3.436-1.021c.2.2.491.465.871.794v.127c0,.075-.2.138-.612.186q.044.438.742.831,0,.241.942.944a2.753,2.753,0,0,0,.472.832q.284,0,.741.634H78.58a6.093,6.093,0,0,0-1.469-1.21q-1.5-1.7-2.694-1.7c0-.048-.042-.071-.128-.071v-.057c.18,0,.27-.043.27-.127a2.041,2.041,0,0,1-1.482-.632,1.693,1.693,0,0,0-.941-.45c0-.122-.043-.183-.128-.183h-.072l-.071.255h-.2a11.39,11.39,0,0,0-2.752-2.337,1.814,1.814,0,0,0-1.553-.575,3.72,3.72,0,0,1-1.54-1.2,2.867,2.867,0,0,1-.812-.507A11.819,11.819,0,0,1,63.2,44.743a2.853,2.853,0,0,0-1.269-.505h-.2q-.256.072-.808,1.345c-.18,0-.269.34-.267,1.018l0,.508.2.635V47.8a7.785,7.785,0,0,1-1.13,2.674.792.792,0,0,1-.4-.126c-.046.137-.089.263-.131.386l.125.181a4.356,4.356,0,0,1,1.484.55,1.392,1.392,0,0,1,1.4.931,6.271,6.271,0,0,0,1.155,1.087c.059.369.089.572.089.606a.564.564,0,0,1-.244.087v.07a6.926,6.926,0,0,0,1.486,1.484v.156q0,.139-.75.229.054.535.91,1.018,0,.294,1.155,1.157a3.424,3.424,0,0,0,.578,1.021q.349,0,.91.776h-.419a7.481,7.481,0,0,0-1.8-1.484q-1.838-2.09-3.3-2.085c0-.059-.052-.087-.158-.087v-.069c.22,0,.332-.054.331-.157a2.5,2.5,0,0,1-1.817-.774,2.081,2.081,0,0,0-1.152-.55c0-.15-.053-.225-.158-.225h-.087l-.087.312H58.6a8.522,8.522,0,0,0-1.419-1.425c-.2.308-.436.66-.729,1.065a4.032,4.032,0,0,1-.523,1.274l-.072-.255a24.584,24.584,0,0,1,.913-2.415c-.45-.351-.962-.719-1.544-1.108a2.214,2.214,0,0,0-1.9-.705,4.563,4.563,0,0,1-1.889-1.466,3.543,3.543,0,0,1-1-.622,14.574,14.574,0,0,1-2.22-1.638,3.479,3.479,0,0,0-1.555-.619h-.243q-.314.086-.989,1.648-.332,0-.328,1.248l0,.623.246.779v.069A9.524,9.524,0,0,1,43.969,54.7a.966.966,0,0,1-.489-.154,8.246,8.246,0,0,1-.987,2.41q-.367-.467-.489-.467c-.279,0-.418.134-.417.4a7.967,7.967,0,0,1-1.631,2.879,4.885,4.885,0,0,1-.641,1.561l-.088-.311q0-.225,1.628-4.212l.154-.779a4.236,4.236,0,0,1-.16-1.247H41a3.363,3.363,0,0,1-.246-.848q0-.381.322-3.187l-.157.07H40.68v-.156c.074-.354.179-.76.308-1.209-.207.287-.423.581-.656.887a13.155,13.155,0,0,1-4.1,3.275,31.534,31.534,0,0,1-3.218,1.6q-.572,0-.619.065a8.62,8.62,0,0,1-4.2-1.438q-3.437-2.655-3.452-7.825v-.347c0-.05,0-.118.006-.174-.016.111-.035.215-.051.328a25.874,25.874,0,0,1-1.318,3.572c-.255,2.785.07,6.609-1.1,9.1-.045.094-.056.074-.068.053s-.021-.033-.052.015c-.069-.808-.145-1.611-.171-2.4-.008-.243-.011-.426-.02-.663-.16.139-.38.21-.383.467a115.777,115.777,0,0,1-1.511,15.032c-.011.426.05,1.307-.37,1.562-.034.021-.062.05-.083.05S19.606,72.6,19.6,72.584ZM5.721,53.152a1.379,1.379,0,0,0,.041.229c.006.017.078-.019.078-.038a1.045,1.045,0,0,0-.039-.216s-.007-.006-.014-.006C5.763,53.121,5.721,53.138,5.721,53.152ZM34.083,36.419a8.513,8.513,0,0,1-2.169,2.639,7,7,0,0,0-1.448,3.882q-.1,2.712-.548,2.713l-.348.489a8.282,8.282,0,0,1,.211,1.449q.783,1.937,1.752,1.934a3.185,3.185,0,0,0,1.4.343,17.817,17.817,0,0,0,2.3-.763,1.651,1.651,0,0,0,1.537-.777,5.4,5.4,0,0,0,1.455-2.085,5.571,5.571,0,0,1,.549-2.429,16.562,16.562,0,0,0,.7-1.527c-.139-.049-.215-.088-.215-.111a.645.645,0,0,0,.245-.07l.037,0c.088-.242.162-.466.216-.674A8.427,8.427,0,0,1,37.84,40.4H38.1a7.256,7.256,0,0,0,1.775.386c.007-.075.012-.151.012-.219a2.214,2.214,0,0,1,.759-.979,2.717,2.717,0,0,0,.283-1.246,20.648,20.648,0,0,0-.213-2.285.633.633,0,0,0,.063-.284h.206c.053,0,.239.183.558.55h.079a.125.125,0,0,0,.142-.142,5,5,0,0,0-.733-1.34v.028a.138.138,0,0,1-.156.156H40.7a.137.137,0,0,1-.157-.155l.086-.4h.1a7.129,7.129,0,0,0-1-.918,1.142,1.142,0,0,1-.492-.14l-.063.142.7.692,0,.283a2.517,2.517,0,0,1-.286.064v.079a.935.935,0,0,1,.287.693l0,.346H39.59A21.088,21.088,0,0,0,38.124,33.9a9.088,9.088,0,0,1-1.19.146,3.928,3.928,0,0,1-1.049-.486A9.679,9.679,0,0,1,34.083,36.419Zm23.422,6.952a4.008,4.008,0,0,1-1.481.871q-.051.364-2.054,1.1c-.162.116-.243.191-.243.225a29.39,29.39,0,0,1,3.041,2.329.663.663,0,0,1,.5.242c.03-.268.063-.559.1-.887l-.128.056h-.2v-.127a28.489,28.489,0,0,1,1.185-3.747l.127-.816ZM70.712,45.3q.185,0,.814,1.141a4.19,4.19,0,0,1,.729.944,1.7,1.7,0,0,1,.533.143,10.672,10.672,0,0,1-1.237-5.25l0-.347q0-.378.061-.977v-.063h-.064q-.409,1.452-.551,1.452l-.144-.2,0-.552.1-.516-.179.159a3.253,3.253,0,0,1-1.208.71q-.04.3-1.676.894c-.132.1-.2.156-.2.185a23.889,23.889,0,0,1,2.482,1.9h0A.622.622,0,0,1,70.712,45.3Zm-68.5,1.245a.633.633,0,0,0,.038.182c.008.015.1,0,.1-.019a.669.669,0,0,0-.039-.182s-.009-.005-.019-.005C2.267,46.522,2.218,46.535,2.217,46.547ZM80.891,32.685a8.512,8.512,0,0,1-2.167,2.639,6.979,6.979,0,0,0-1.449,3.882q-.1,2.713-.547,2.713l-.349.489a8.262,8.262,0,0,1,.21,1.45q.785,1.937,1.753,1.934a3.183,3.183,0,0,0,1.4.342,17.475,17.475,0,0,0,2.3-.763,1.653,1.653,0,0,0,1.537-.777,5.405,5.405,0,0,0,1.455-2.085,5.6,5.6,0,0,1,.548-2.43c.207-.4.382-.774.532-1.12a5.137,5.137,0,0,1-1.513-.609c-.061-.114.046-.1.136-.092.029,0,.056.006.076.006a3.127,3.127,0,0,1,.576.063,3.631,3.631,0,0,0,.569.064c.1,0,.209.02.322.016a.2.2,0,0,0,.063-.018c.033-.086.064-.173.092-.255a10.87,10.87,0,0,1-3.173-1.807,1.378,1.378,0,0,1,.26.023,18.2,18.2,0,0,0,3.115.717c.007-.05,0-.032.008-.1a.232.232,0,0,1,.052-.114c0-.009,0-.019,0-.027.012-.037.033-.075.049-.112a2.943,2.943,0,0,0-.056-.3,1.272,1.272,0,0,1,.022-.313c.081-.516.441-.722.915-.874l.055-.058a2.862,2.862,0,0,0,.057-.573c0-.046,0-.109-.006-.162a1.437,1.437,0,0,1-.1-.3.191.191,0,0,1,.069-.158c-.033-.432-.091-.976-.182-1.662a.608.608,0,0,0,.063-.284H87.8c.042,0,.172.122.381.353l-.1-.216c.011-.105.02-.208.029-.313.076.015.151.029.228.041a6.056,6.056,0,0,0-1.8-2.084,1.142,1.142,0,0,1-.492-.14l-.064.142.633.624.009-.028a1.817,1.817,0,0,1,.251.034.175.175,0,0,1,.144.181c0,.093-.015.161-.021.256a.143.143,0,0,1-.169.137c-.087-.012-.1-.007-.187-.025s-.149-.059-.14-.16a.84.84,0,0,1-.1.019v.079a.938.938,0,0,1,.287.693l0,.347H86.4a20.931,20.931,0,0,0-1.466-1.809,8.9,8.9,0,0,1-1.19.145,3.953,3.953,0,0,1-1.05-.486A9.63,9.63,0,0,1,80.891,32.685Zm-28.94-3.619,0,.555A5.542,5.542,0,0,1,52.2,31.4q0,1.473-.658,1.474c-.069.416-.2.624-.4.624v.4A19.608,19.608,0,0,1,50,36.241v.225c0,.035.03.375.09,1.021a8.7,8.7,0,0,1-1.145,1.942,2.678,2.678,0,0,0-.171,1.091,3.443,3.443,0,0,0,1.326.222,21.864,21.864,0,0,0,4.025-1.1q0-.416.817-1.008a5.826,5.826,0,0,0,1.636-.94q.908,0,1.549-1.407a3.507,3.507,0,0,0,.377-.681c-.069-.135-.144-.275-.232-.427v-.255h.2c.065.118.126.229.187.335q.2-.478.456-1.157l-.087-.156a1.936,1.936,0,0,0,.086-.537c-.721-2.205-1.707-3.633-2.956-4.3a3.981,3.981,0,0,0-.448.229,1.652,1.652,0,0,1-.937.511.647.647,0,0,1-.271-.056,5.97,5.97,0,0,1-1.264.64v-.2c.928-.518,1.745-.952,2.472-1.32-.037-.028-.061-.055-.061-.085l.087-.156a2.9,2.9,0,0,1-.75-.24,6.874,6.874,0,0,1-1.394.315c-.035,0-.2-.022-.488-.068Q51.951,28.789,51.951,29.066Zm14.29.5v.452a4.529,4.529,0,0,1,.2,1.454q0,1.2-.538,1.2c-.056.34-.164.509-.325.51V33.5a16.1,16.1,0,0,1-.934,1.911V35.6q0,.043.073.833a7.092,7.092,0,0,1-.935,1.585,2.232,2.232,0,0,0-.139.89,2.8,2.8,0,0,0,1.081.181,17.81,17.81,0,0,0,3.286-.9q0-.339.665-.822a4.777,4.777,0,0,0,1.336-.766q.74,0,1.263-1.149a3.647,3.647,0,0,0,.387-.734,7.216,7.216,0,0,0,.208-.841h-.349c-.1,0-.143-.041-.144-.126v-.079c.157-.365.333-.721.522-1.074A5.251,5.251,0,0,0,69.6,29.552q-.342-.084-.341-.182l.07-.127a2.38,2.38,0,0,1-.612-.2,5.657,5.657,0,0,1-1.137.258c-.029,0-.161-.019-.4-.056C66.554,29.307,66.24,29.411,66.241,29.562Zm-9.9,8.445v.156a.654.654,0,0,1,.244-.07v-.087Zm-35.67-.064a.658.658,0,0,0,.006.192c.006.016.094.008.1-.008a.72.72,0,0,0-.006-.192c0-.006-.016-.009-.033-.009S20.671,37.932,20.668,37.942ZM99.1,25.381c-.272.015-1.008.275-1.035.522a1.568,1.568,0,0,0,.037.563,12.087,12.087,0,0,1,.344,1.723c.035.662.081,1.318-.564,1.568-.041.233-.087.6-.367.644-.059.327.087.018-.018.494a11.07,11.07,0,0,1-1.156,2.284c-.034.23.019,0-.02.291s.144.5.008,1.077a9.42,9.42,0,0,1-1.315,1.862,2.805,2.805,0,0,0-.265,1.045,3.3,3.3,0,0,0,1.456.309,13.817,13.817,0,0,0,4.338-1.23,2.035,2.035,0,0,1,.928-1.2,7.6,7.6,0,0,0,1.593-1.265,3.014,3.014,0,0,0,.327-.155,2.421,2.421,0,0,1-.75-.367c-.062-.115.046-.1.136-.093.029,0,.056.006.076.006.286-.008.649.088.983.116a1.91,1.91,0,0,0,.283-.394,10.352,10.352,0,0,1-2.816-1.658,1.375,1.375,0,0,1,.26.022,19.073,19.073,0,0,0,2.975.7c.02-.049.037-.093.059-.146.033-.08.087-.233.149-.421a.459.459,0,0,1-.013-.059,1.231,1.231,0,0,1,.022-.313.889.889,0,0,1,.256-.51,7.153,7.153,0,0,0,.26-1.218c-.029-.109-.06-.062-.1-.173s.056-.447.008-.553a9.443,9.443,0,0,0-1.263-2.1.9.9,0,0,1-1.139.53.363.363,0,0,1-.242-.119s-.009-.014-.013-.019c-.047.031-.1.06-.144.09-.645.456-.6.611-1.181.74-.231.051-.168-.038-.361-.043a5.663,5.663,0,0,1-1.5.891c-.007-.083-.014-.165-.02-.249.952-.606,1.955-1.312,3-1.956a1.359,1.359,0,0,1-.056-.507.964.964,0,0,1,.2-.451.331.331,0,0,1,.118-.09,4.147,4.147,0,0,0-.661-.331c-.309-.118-.354,0-.436-.148s.145-.081.038-.192-.536-.055-.7-.088a5.416,5.416,0,0,1-1.276.56,1.935,1.935,0,0,1-.282.01h-.075C99.154,25.379,99.123,25.38,99.1,25.381ZM32.9,37.668a.126.126,0,0,0,.143-.142H32.9Zm9.42-3.984a1.8,1.8,0,0,1-.427.632,3.825,3.825,0,0,1,1.352,2.628c.359.474.667.717.923.716a9.343,9.343,0,0,0,.5-3.049,1.543,1.543,0,0,1,.4-.85v-.468a2.06,2.06,0,0,1,.415-1.248,1.22,1.22,0,0,0-.176-.467,4.853,4.853,0,0,1,2.871-2.26q1.237-.055,1.237-.4v-.069a.923.923,0,0,1-.488-.086l-1.081.16a15.739,15.739,0,0,1-1.554-.377v-.155l.157-.243H45.95a11.149,11.149,0,0,1-2.72.406,2.179,2.179,0,0,0-.576-.084l0-.225a.552.552,0,0,0,.505-.313c-.221-.2-.332-.328-.332-.4a14.178,14.178,0,0,0-3.78,1.257c.122.1.248.211.383.33h.079a2.427,2.427,0,0,1,.618-.143.637.637,0,0,1,.573.345,3.23,3.23,0,0,1-.426.9,4.361,4.361,0,0,1,.99,2.015v.126l-.349.08h-.143a1.12,1.12,0,0,1-.557-.14.421.421,0,0,0-.348.41,2.14,2.14,0,0,0,1.193.691c.02-.179.09-.268.206-.268l.413,0C42.1,33.2,42.314,33.38,42.315,33.684Zm64.1,3.423a.652.652,0,0,0,0,.169c0,.015.082,0,.086-.016a.624.624,0,0,0,0-.17s-.008-.005-.016-.005C106.463,37.085,106.422,37.1,106.419,37.107Zm-36.6-.25v.126a.548.548,0,0,1,.2-.057v-.071Zm37.287-.529a.955.955,0,0,0-.086.2c-.007.023-.014.071,0,.079s.048.014.092-.023.1-.221.063-.263a.047.047,0,0,0-.034-.021C107.128,36.3,107.114,36.316,107.107,36.328Zm-4.26-1.865a.13.13,0,0,0,.006.169c.056.039.21-.071.232-.115s.016-.1,0-.1A.556.556,0,0,0,102.846,34.463ZM79.7,33.792v.142a.126.126,0,0,0,.142-.143Zm9.42-3.842a1.8,1.8,0,0,1-.427.632,4.346,4.346,0,0,1,1.441,3.34,9.617,9.617,0,0,0,.711-2.62,1.659,1.659,0,0,1,.484-.7c.014-.139.021-.293.032-.412a2.38,2.38,0,0,1,.455-1.106c.046-.075-.133-.323-.171-.4a4.933,4.933,0,0,1,1.75-1.617c-.007-.282.033-.687.054-1.013-.322-.059-.643-.125-.963-.2.007-.048-.025-.106-.009-.152.03-.086.095-.163.133-.247H92.47a1.862,1.862,0,0,0-.349.022c-.914.171-1.8.427-2.729.544A1.055,1.055,0,0,1,89.134,26,.855.855,0,0,0,88.8,26c-.008-.08-.013-.15-.02-.226a.614.614,0,0,0,.488-.353,1.14,1.14,0,0,1-.382-.36c-.418.122-.925.28-1.438.46a.6.6,0,0,1,.054.071,3.218,3.218,0,0,1-.427.9,4.344,4.344,0,0,1,.99,2.015v.126l-.349.079H87.58a1.128,1.128,0,0,1-.557-.139.421.421,0,0,0-.348.41,2.135,2.135,0,0,0,1.193.69c.021-.178.089-.268.206-.268h.413C88.91,29.462,89.122,29.646,89.124,29.95ZM29.959,15.342c.22,3-.562,6.115-.974,9.044a13.521,13.521,0,0,1-1.032,4.365,3.884,3.884,0,0,1-.705,1.683c-.2,1.145-.369,2.293-.513,3.445l.006-.008q.9-.649.9-1.122l-.08-.268A7.884,7.884,0,0,1,29.8,30.394,6.484,6.484,0,0,1,32.584,29a2.552,2.552,0,0,1,1.519-.79c-.016-.209-.026-.432-.027-.68a6.388,6.388,0,0,0,.1-.764l-.047-.349a8.537,8.537,0,0,0,.25-1.47,3.043,3.043,0,0,0,.349-.862q0-1.449-.357-1.72-.1,0-.106-.608H34.21a5.3,5.3,0,0,1-.707,1.27l0,.453a.866.866,0,0,0,.1.407q0,1.617-.452,1.62a2,2,0,0,1,.106.4q-.058.24-.559.461a.539.539,0,0,1-.517-.406q0-.317.462-.506l-.054-.356V25q0-.31.611-.811a4.193,4.193,0,0,1,.05-.661c-.139,0-.209-.049-.21-.148v-.052a3.47,3.47,0,0,0,.358-.662q-.171-.608-.458-.607l-.1-.148v-.1a.359.359,0,0,1,.41-.4h.1l.157.1h.1c0-.026.017-.128.051-.3l-.151-.3a2.853,2.853,0,0,1,.2-.46.046.046,0,0,1,.051.052l.1-.053q.412.051.412.355h.052a1.835,1.835,0,0,1,.051-.505h-.053l.1-.3a.915.915,0,0,1-.914-.5v-.1c0-.3.133-.453.4-.453a.652.652,0,0,1,.412.2h.1a3.911,3.911,0,0,1,.513-1.012v-.207a.441.441,0,0,0-.21-.4.086.086,0,0,1-.1.1h-.1c-.1-.029-.151-.129-.151-.3a.36.36,0,0,1,.2-.1l-.052-.1v-.253c-.135,0-.2-.048-.2-.148v-.156l.052-.1q-.143,0-.21-.5c.069-.306.223-.46.461-.46l0-1.67h-.052c-.122,0-.224.169-.3.506a1.72,1.72,0,0,1-.814.358.408.408,0,0,0-.2-.051q-.28,0-1.118.967H31.9a1,1,0,0,1-.817-.457,3.455,3.455,0,0,1-.709.261,1.3,1.3,0,0,1-.448-.267C29.936,15.2,29.954,15.277,29.959,15.342ZM66.115,30.452h.057v-.183h-.128A.373.373,0,0,1,66.115,30.452ZM51.8,30.157h.07l0-.225H51.71A.466.466,0,0,1,51.8,30.157Zm10.917-.5a2.04,2.04,0,0,1,.245.188c.065-.026.127-.054.2-.079q1.01-.045,1.009-.328v-.057a.755.755,0,0,1-.4-.07l-.881.13c-.136-.026-.262-.066-.394-.1A3.761,3.761,0,0,1,62.714,29.659ZM38.646,28.475a16.371,16.371,0,0,1,4.618-1.868.636.636,0,0,1-.169-.436,6.273,6.273,0,0,1,.076-1.217.318.318,0,0,1-.042-.165v-.078a10.34,10.34,0,0,1,.122-1.181,1.118,1.118,0,0,0-.164-.4l.068-1.929-.084-.125v-.119a13.232,13.232,0,0,0,.116-1.669.643.643,0,0,0-.527.37.5.5,0,0,0-.246.12q-1.062.415-1.061.736a14.42,14.42,0,0,1-.122,1.5l.043.2c0,.024-.015.133-.042.328a4.581,4.581,0,0,1,.043.525.038.038,0,0,0-.042.041h.043a.993.993,0,0,0-.083.447V23.6l.085.12a.037.037,0,0,1-.042.041l.042.083a1.722,1.722,0,0,0-.082.489,1.045,1.045,0,0,0,.21.238l-.042.083,0,.328c0,.024.014.036.042.036a.507.507,0,0,1-.45.329q-.577-.232-.577-.487a2.915,2.915,0,0,1,.124-.525l-.084-.041a.511.511,0,0,1-.491.365V24.7l.042.078-.2.042h-.084a.5.5,0,0,1-.572-.566c-.029,0-.042-.013-.042-.041a10.387,10.387,0,0,0,.4-1.544l-.042-.083a6.458,6.458,0,0,0,.283-1.544c.027,0,.042-.012.042-.036a.074.074,0,0,0-.084-.083,16.18,16.18,0,0,0,.367-1.747H40l.042-.083v-.161a1.4,1.4,0,0,1,.077-.531,2.228,2.228,0,0,1-.079-.488,2.556,2.556,0,0,1,.243-.931.036.036,0,0,0-.042-.041,13.643,13.643,0,0,0,.116-1.5q-.08-.488-.08-.572l.4-2.278c0-.024-.014-.036-.042-.036l.042-.2V12.1a.037.037,0,0,0-.042-.041,3.517,3.517,0,0,1,.118-.447.317.317,0,0,1-.035-.135,2.727,2.727,0,0,1-.57.146h-.1l-.307-.051a2.322,2.322,0,0,1-.918.307q-.026.1-.762.461a1.14,1.14,0,0,0,.106.4,3.881,3.881,0,0,1-.251,1.218l.052.1q-.051.356-.155.357l-.508,0a1.821,1.821,0,0,0-.1.453,13.251,13.251,0,0,1,.312,1.824l-.052.2a7.706,7.706,0,0,1,.162,1.364,4.562,4.562,0,0,0-.1.914v.4q.206.75.2.808a4.163,4.163,0,0,1-.4,1.321,1.009,1.009,0,0,1-.454.758.355.355,0,0,1-.051.149.74.74,0,0,0,.458.762q.274,0,.416,1.869v.253a2.38,2.38,0,0,0-.155.609l0,.4.053.252c-.335.477-.614.842-.845,1.109.01,0,.02,0,.03,0l.7,0A2.432,2.432,0,0,1,38.646,28.475Zm-22.128-.018c0-.007.02-.006.037-.006s.041,0,.05-.011c.11-.169.247-.353.339-.531.014-.026.06-.082-.031-.105h-.006C16.808,27.8,16.509,28.326,16.518,28.457Zm45.364-.592v.056h.327v-.057Zm-15.273-.878v.069l.4,0v-.069Zm51.284-.156c-.029.051.054.179.092.2s.068,0,.069-.009a.532.532,0,0,0-.02-.215.07.07,0,0,0-.054-.017A.1.1,0,0,0,97.892,26.83ZM93.8,26.141c0,.252.033.469.055.679.194-.1.39-.191.6-.282.321-.031,1.108-.042,1.2-.453.007-.032.01-.058,0-.066a.364.364,0,0,0-.282-.049.5.5,0,0,1-.2,0l-1.073.2c-.1-.015-.193-.035-.29-.05ZM43.391,26.6H43.4l0,0Zm49.3-2.318c-.018,0-.011.066.007.066.107,0,.283-.011.388-.023.019,0,.013-.066-.007-.066C92.97,24.259,92.793,24.27,92.687,24.281Zm-.421-2.392v.044a.471.471,0,0,1-.038.217l.039.26,0,.216c-.1.118-.188.218-.274.309a4.833,4.833,0,0,1,1.733-.474c.078-.561.148-1.05.182-1.318.091-.713.09-1.4.1-1.473a18.113,18.113,0,0,0,.315-2.353c.011-.191.016-.452.024-.623s.068-.111.039-.3-.272-.487-.1-.722c0,0,.01,0,.018,0s.02.006.021,0c0-.039-.038-.024-.037-.091a2.669,2.669,0,0,1,.009-.307,6.919,6.919,0,0,1,.269-1.09c0-.01-.016-.008-.025-.006s-.016,0-.016,0c0-.024.04-.063.047-.09s.023-.074.006-.1a1.3,1.3,0,0,1-.389-.867c-.1-.03-.122-.158-.124-.265s.052-.373.064-.472a4.028,4.028,0,0,0-.078-1.124c-.04-.115-.014-.11.011-.105s.027,0,.027-.015c0-.142.034-.182-.009-.315s-.22-.18-.356-.187a12.417,12.417,0,0,0-.185,1.252c.069.231.144.484.222.762v.172a3.361,3.361,0,0,0-.171.655V13.6a.352.352,0,0,0,.039.172.324.324,0,0,0-.038.134,1.551,1.551,0,0,0,.3.908,2.322,2.322,0,0,1,.091.566,7.729,7.729,0,0,0-.347,1.648v.083h-.039v-.083c.025-.152.039-.238.039-.26a1.114,1.114,0,0,0-.086-.306.039.039,0,0,0,.045-.045h-.045l.083-.216h-.084v.172l-.09-.039-.043.255c.031.385.047.7.047.954h-.044l.044.088,0,.866.045.088a.039.039,0,0,0-.044.045h.044a1.2,1.2,0,0,0-.127.388q-.089,0-.136-.433l.044-.216v-.089h-.044v.177h-.044v-.134h-.044c0,.115-.028.173-.084.173l0,1H93v-.388a.321.321,0,0,0-.045-.172A.039.039,0,0,1,93,18.9l-.045-.216v-.133L93,18.465h-.045L93,18.376v-.61h.088v-.083l-.045-.089a.039.039,0,0,0,.045-.045c-.052,0-.1-.042-.135-.126L93,17.333v-.039a1.968,1.968,0,0,1-.086-.438h-.044a.416.416,0,0,1-.045.216c.03,0,.046.015.046.044h-.046l.046.089a.04.04,0,0,1-.045.045l.046.083v.432a.04.04,0,0,0,.046.045.3.3,0,0,0-.045.133h-.09v-.349l-.09-.127,0-.521h-.039a.3.3,0,0,1-.044.128h.045l-.045.088V17.6a2.76,2.76,0,0,0,.086.432l-.037.693.04.394-.081.91a4.08,4.08,0,0,1,.047.693v.089a.033.033,0,0,0,.038.038c0,.03-.012.045-.038.045l.039.3v.127l-.038.223h-.045a3.781,3.781,0,0,0-.092-.954l0-1.087-.047-.52h.046a.3.3,0,0,1-.046-.128c-.027-.469-.041-.73-.041-.781a.357.357,0,0,0,.038-.173h-.038a7.69,7.69,0,0,0,.124-1.259c-.068-.462-.127-.693-.175-.693h-.089v-.171h.044l.09.044c0-.059.028-.088.084-.088a.3.3,0,0,1,.089.171h.045q0-.083.039-.083a1.069,1.069,0,0,1-.085-.349h-.046V15.6c.03,0,.045.013.045.039h-.045a.993.993,0,0,0-.262-.172l.045.089a.084.084,0,0,1-.089.083c0-.085-.014-.127-.039-.127a.346.346,0,0,0,.038-.128c-.026-.088-.055-.132-.084-.132l.044-.089v-.216h.128a.313.313,0,0,1-.045-.128h-.083a.36.36,0,0,1-.224.089l.046.083a.039.039,0,0,0-.045.045c.06,0,.09.042.09.128l-.045.088a1.027,1.027,0,0,1,.091.3,1.891,1.891,0,0,1-.132.649.039.039,0,0,1,.045.045.039.039,0,0,0-.044.044h.044l-.044.083a3.975,3.975,0,0,0,.137,1.042c0,.086-.015.128-.045.128l.046.26q0,.933.1,2.257h.084a.04.04,0,0,1-.045.045c0,.026.016.039.045.039q-.043.587-.042.871l0,.649-.038.088a.034.034,0,0,1,.038.039h-.038Zm2.92-.738a1.925,1.925,0,0,0-.385,1.093c.149-.035.3-.067.451-.1,0-.011,0-.024,0-.035a3.5,3.5,0,0,1,.057-.379.109.109,0,0,0-.06-.131c-.011-.008-.021.01-.029.028s-.021.054-.02,0c0-.092.118-.327.015-.473,0,0-.012-.006-.02-.006A.018.018,0,0,0,95.186,21.151Zm-43.724-.837v.041H51.5c0-.093.149-.243.448-.447a.288.288,0,0,1,.042-.12h-.042l.042-.083v-.041A4.331,4.331,0,0,0,51.463,20.314Zm37.744.025h.044c.087,0,.129-.132.128-.394l-.04-.083.217-.477c-.03-.088-.06-.133-.091-.133l.044-.084v-.3c0-.233.013-.508.042-.826a.309.309,0,0,1-.045-.128l.261-.477a.305.305,0,0,0,.173-.089h.173c.38.113.57.229.571.347h.089a14.833,14.833,0,0,0,.25-2.385v-.261a.846.846,0,0,1,.132-.433q-.14-1.941-.621-2.167a.439.439,0,0,0-.347-.17,5.093,5.093,0,0,0-2.048.7,2.154,2.154,0,0,0-.917,1.561v.088q0,.039.091.865a.966.966,0,0,1-.26.65,2.019,2.019,0,0,0,.393.609.716.716,0,0,1,.135.343v.222a4.58,4.58,0,0,0-.171.516,9.588,9.588,0,0,0,.79,2.383.885.885,0,0,0,.48-.128h0A1.163,1.163,0,0,1,89.207,20.339ZM29.68,13.329a2.684,2.684,0,0,0-.106.452c.006.037.02.079.028.118l.254-.978.4-.208a.046.046,0,0,0,.053.052v-.2h-.254c0,.169-.068.253-.2.254l-.029-.058C29.786,12.939,29.74,13.124,29.68,13.329Zm.2-.816h.073v-.051h-.065C29.883,12.479,29.882,12.5,29.878,12.513Zm2.927-.565c.543-.216.814-.369.813-.455l.1.045v-.045a.046.046,0,0,1-.052-.052.047.047,0,0,0,.052-.053A3.83,3.83,0,0,0,32.806,11.948Zm11.545-.59-.2.286h.042a8.225,8.225,0,0,1,1.059-1.064.274.274,0,0,1,.042-.119h-.042l.042-.083v-.036A5.3,5.3,0,0,1,44.351,11.358Zm29.868-.238q.615-.274.611-.373l.082.032,0-.035a.035.035,0,0,1-.042-.038.035.035,0,0,0,.038-.041A2.914,2.914,0,0,0,74.219,11.12Zm-31.777-.507a2.521,2.521,0,0,0-.014.263v.083h.042l.107-.4Zm-.59.219v0h.042l0-.02Zm-4.364-.313-.1.155h.1a6.682,6.682,0,0,0,1.784-.866c.177-.035.279-.053.305-.053V9.7q-.157,0-.157-.051A18.378,18.378,0,0,0,37.488,10.518Zm40.282-.63-.069.122.074,0a5.1,5.1,0,0,0,1.344-.716c.136-.032.213-.048.234-.049l0-.04c-.08,0-.121-.009-.122-.035A14.328,14.328,0,0,0,77.77,9.888ZM40.69,54.778v-.311h.069v.311Zm44.061-.349c0-.105.014-.312.026-.419,0-.024.066-.029.066-.006,0,.106-.013.311-.024.418,0,.013-.023.021-.042.021S84.751,54.44,84.751,54.43ZM10.875,48.214c-.01-.134.049-.188.042-.306.221-.025.44-.051.661-.079a1.539,1.539,0,0,1,.14.394c.016.152-.049.37-.219.4s-.309.036-.476.059A1.933,1.933,0,0,1,10.875,48.214Zm3.032-.762a2.474,2.474,0,0,1-.367-.722,4.554,4.554,0,0,1,.333-.829c.076-.144.127-.049.179-.045.621.051.866.468.9,1.09.012.228-.313.447-.587.461-.085,0-.29.046-.418.046Zm22.181-2.095,0-.623.418-.157a.885.885,0,0,1,.733.465l0,.242a1.984,1.984,0,0,1-.732.314h-.175Q36.211,45.6,36.088,45.357Zm1.946-3.3c.012-.1.065-.156.157-.156h.175c.105.024.158.075.158.156l0,.242a.139.139,0,0,1-.158.156h-.244Zm44.689-2.349c-.058,0-.086,0-.1,0a.318.318,0,0,1-.1-.015.282.282,0,0,1-.221-.278,3.646,3.646,0,0,1,.04-.635c.2-.045.2-.115.463-.126a.694.694,0,0,1,.673.547.674.674,0,0,1-.018.246,2.037,2.037,0,0,1-.721.263ZM35.874,39.15c.011-.1.064-.156.156-.157H36.2c.105.023.158.075.158.156v.242a.139.139,0,0,1-.157.156h-.244Zm17.318-.156c.009-.084.052-.127.127-.127h.142c.086.019.129.061.129.126v.2a.113.113,0,0,1-.128.127h-.2ZM39.734,37.9a2.645,2.645,0,0,1-.247-.692,1.882,1.882,0,0,1,.575-.313c.385.148.577.379.577.691v.242l-.576.071Zm41.924-1.044c-.095,0-.159-.011-.249-.019a3.185,3.185,0,0,1-.055-.415c0-.12.08-.152.163-.153a.725.725,0,0,1,.184.015.165.165,0,0,1,.142.171c-.006.091-.011.161-.019.255a.148.148,0,0,1-.153.147ZM56.072,36.2a1.529,1.529,0,0,1,.469-.255q.47.182.472.563v.2l-.469.058-.27,0A2.2,2.2,0,0,1,56.072,36.2Zm41.42-.665a.236.236,0,0,1-.032-.178,1.335,1.335,0,0,1,.464-.572.664.664,0,0,1,.326-.073c.178,0,.487.353.538.631.022.118-.083.493-.292.546a1.716,1.716,0,0,1-.411.06A.562.562,0,0,1,97.493,35.538Zm-27.108-.372a2.131,2.131,0,0,1-.2-.564,1.572,1.572,0,0,1,.469-.256q.47.182.471.564v.2l-.469.058Zm-13.45-.872.07-.326h.2c.086.019.128.062.129.127v.2a.112.112,0,0,1-.127.127h-.143A.113.113,0,0,1,56.935,34.294ZM85.721,33.9a1.91,1.91,0,0,1-.346-.037,2.633,2.633,0,0,1-.173-.7.911.911,0,0,1,.573-.3.766.766,0,0,1,.542.769c0,.073-.021.178-.021.255-.156,0-.374.021-.528.021Zm-40.1-4.107a.169.169,0,0,1,.174-.156h.244l.07.38V30.1l-.4.071Zm46.293-2.734c-.009-.109.075-.141.162-.15s.163,0,.249-.006c.023.092.074.266.091.338s0,.041.01.093c-.136.02-.267.049-.4.072A1.449,1.449,0,0,1,91.916,27.061ZM74.491,25.111h0ZM92.4,22.454v-.133h.044l-.045-.084,0-.781c0-.059.027-.089.083-.089l.091.871c-.067,0-.109.072-.127.216Zm-18.256-.159c-.215-.019-.444-.012-.672-.018a.323.323,0,0,0,.23-.093,1.181,1.181,0,0,1,.63-.016c.066.059.026.035.03.047.01.034.016.059,0,.075s-.026,0-.049-.007a.14.14,0,0,0-.052-.009c-.024,0,0,.024-.02.04a.022.022,0,0,1-.015,0A.521.521,0,0,1,74.147,22.295Zm-.694-.018h0Zm-.011,0h.011Zm-.183-.01c.061,0,.122.008.183.01h-.01A1.527,1.527,0,0,1,73.259,22.266Zm-20.3-.6c0-.031.042-.071.124-.12v.032c0,.028-.031.057-.094.088Zm.889-1.889a.056.056,0,0,1,.063-.058v.031c0,.038-.02.058-.063.058ZM33.638,17.964l.051-.5q-.816-.14-.817-.606.141-.608.611-.61c.026,0,.128.017.307.05,0-.065.049-.1.149-.1.156.065.242.131.256.2v.052a.559.559,0,0,1-.15.35l0,.355a1.2,1.2,0,0,1,.308.608v.052a.358.358,0,0,1-.409.4A.494.494,0,0,1,33.638,17.964Zm55.222-.739a.677.677,0,0,1-.033-.553s.008,0,.013,0a.308.308,0,0,1,.112.015.963.963,0,0,1,.1.353.333.333,0,0,1-.015.1.13.13,0,0,1-.133.1h0C88.885,17.229,88.871,17.226,88.86,17.226Zm-.331-.058c-.014-.1-.047-.1-.042-.221a.332.332,0,0,1,.258-.3.674.674,0,0,0,.032.553A2.042,2.042,0,0,1,88.529,17.168Zm-86.539.01a1.57,1.57,0,0,1-.68-.534.754.754,0,0,1-.09-.379c-.007-.207.412-.569.739-.632.139-.027.583.092.647.335.128.484.148.987-.407,1.171a.322.322,0,0,1-.143.043A.471.471,0,0,1,1.99,17.178Zm86.118-.829c-.051,0-.077,0-.092,0a.284.284,0,0,1-.1-.014.256.256,0,0,1-.2-.254,3.19,3.19,0,0,1,.036-.581c.188-.041.186-.105.424-.115a.635.635,0,0,1,.617.5.619.619,0,0,1-.017.225,1.871,1.871,0,0,1-.66.239Zm1.048-.226a.458.458,0,0,1-.082-.157,1.525,1.525,0,0,1,.371-.449.522.522,0,0,1,.14-.071.208.208,0,0,1,.248.084,2.336,2.336,0,0,1,.219.4c-.115.108-.087.151-.25.259a.532.532,0,0,1-.286.078A.472.472,0,0,1,89.156,16.123ZM2.628,15.568A.433.433,0,0,1,2.8,15.14c.127-.054.257-.054.385-.1.048.124.156.336.191.435s.011.015.027.109a.178.178,0,0,1-.149.228c-.14.028-.314.079-.468.107C2.8,15.812,2.64,15.642,2.628,15.568Zm72.4.144.024-.389c-.42-.056-.634-.2-.644-.441.06-.315.211-.476.451-.486.02,0,.1.01.237.03,0-.049.036-.076.113-.079.122.045.189.094.2.147v.04a.426.426,0,0,1-.1.272l.011.273a.926.926,0,0,1,.254.457l0,.04a.276.276,0,0,1-.3.321A.381.381,0,0,1,75.032,15.712ZM3.824,14.07c-.083-.033-.2-.225-.248-.307a.416.416,0,0,1-.05-.2c-.011-.09.006-.2.124-.225a3.487,3.487,0,0,1,.382-.088c.124-.014.2.014.238.149s.078.318.112.464c-.118.045-.337.158-.432.187-.063.019-.061.038-.078.038A.163.163,0,0,1,3.824,14.07Zm40.321-3.445q.073,0,.532-.567h-.083v.079h-.042a.07.07,0,0,1-.079-.079,2.352,2.352,0,0,0,.486-.531q.126-.016.778-.814h.042v.12l-.372.447.084-.041h.042V9.28c-.237.272-.387.407-.449.407v.083h.042a.294.294,0,0,1,.12-.042v.083q-.491.257-.491.324c0,.1-.176.328-.527.692A.414.414,0,0,1,44.145,10.625Zm3.4-.29c.007-.055.034-.083.083-.083v.042c0,.051-.027.078-.083.078ZM25.373,2.484a2.9,2.9,0,0,1,.238-.648c.025-.087.053-.071.073-.054s.016.014.02.013c.475-.088,1.008.037,1.07.523a.807.807,0,0,1-.57.923,1.223,1.223,0,0,1-.281.054A2.693,2.693,0,0,1,25.373,2.484Zm2.109.765c-.079-.042-.135-.263-.147-.33a.442.442,0,0,1,.183-.447c.136-.052.255-.049.389-.088.047.129.14.333.176.442a1.608,1.608,0,0,1,.044.207c-.123.042-.34.145-.44.179-.072.024-.1.054-.147.054A.121.121,0,0,1,27.482,3.25ZM28.4.522a.389.389,0,0,1,.184-.448A1.281,1.281,0,0,1,28.89,0c.118-.019.182.04.21.155s.06.262.078.382,0,.2-.134.23-.32.071-.465.1A1.36,1.36,0,0,1,28.4.522Z" fill="url(#linear-gradient)"/>
  </g>
</svg>
