<svg xmlns="http://www.w3.org/2000/svg" width="534.977" height="192.895" viewBox="0 0 534.977 192.895">
  <path id="blod" d="M35.564,1211.23v45.364S52.372,1239.2,71.9,1239.2s26.2,13.662,26.8,20.492-7.292,120-6.081,130.071,11.811,16.564,16.2,13.661,6.814-4.61,7.722-11.783-6.033-121.532-5.427-131.949,9.236-18.272,15.293-20.492c0,0,14.408,0,14.863,6.831s9.226,7.865,9.365,0,8.316-6.831,10.132-6.831,5.451,11.261,5.224,16.384-3.079,11.782-3.243,16.649,2.057,9.733,6.057,10.246,5.362-8.965,5.135-11.782-3.634-11.014-3.861-15.368,1.617-14.141,4.783-15.779,3.394-4.456,10.207-4.968,11.461,1.556,14.02,4.62c0,0,9.842,20.663,33.464,20.492s28.164-20.492,33.161-20.492,16.2,4.611,18.171,13.662,2.309,95.63,1.855,109.291-2.29,12.023-1.855,18.426,4.41,7.428,6.057,7.428,3.861-4.509,3.937-7.582-2.5-13.235-2.347-18.7-.829-105.62,2.349-112.109c0,0,6.166-10.417,14.232-10.417s14.426,4.821,14.881,9.242.165,9.448-1.2,13.033,1.409,11.253,4.487,11.253,3.987-9.677,3.382-11.384-2.776-8.482-1.413-13.434,10.145-11.612,16.2-11.612c4.607,0,10.414,3.173,14.683,4.692a10.563,10.563,0,0,0,6.538.226c7.315-2.142,15.119-9.692,15.119-15.676,0-6.831,7.976-7.873,12.114-6.831s2.7,10.493,7.243,14.848,8.681,2.04,10.927,3.842,3.483,11.024,3.23,13.984c-.183,2.15-.757,2.334-1.06,5.066-.3,2.714,1.111,3.245,2.12,3.245s2.221-1.765,1.766-3.472a21.357,21.357,0,0,1-.757-5.635c-.038-2.391-.038-14.929,2.019-18.557,1.968-3.472,3.432-3.245,4.8-3.245s3.886,2.732,4.088,3.586.719,1.921,1.741,1.921,1.4-1.879,1.4-2.177,1.325-3.842,3.672-4.1,4.694,1.794,6.511,2.021,12.257,1.932,18.927-6.7c2.4-3.1,10.751-1.725,12.114,5.447s1.41,71.881,1.41,77-2.773,7.185-2.924,10.43,2.271,7.343,4.24,7.343,3.331-4.61,3.331-7.514-2.877-8.368-2.877-10.758.909-72.064,2.877-77.187,8.328-7,12.114-6.831,8.126,3.188,9.438,5.464,3.23,16.223,3.23,21.176.2,22.541-.555,26.867.606,6.261,1.918,6.2,1.918-4.839,1.413-6.432-1.161-26.071-1.161-27.437.455-17.731,1.338-20.378,9.665-4.611,12.694-4.1,3.634,4.952,6.057,5.294,7.464,1.272,10.644-5.132,9.312-10.245,11.583-8.965,6.132,5.379,6.132,9.221-1,66.862-1.507,68.684,1.514,4.212,2.928,4.326,3.23-2.618,2.473-4.44-1.464-67.85-1.262-69.1,2.322-5.123,3.432-5.123,2.074-1.455,4.194-2.6c0,0,1.763-1.615,1.763-1.615s3.167-1.193,4.946-1.665c.123-.032.309-.269.309-.269l.708-.021Z" transform="translate(-35.564 -1211.23)"/>
</svg>
